<?xml version="1.0" encoding="UTF-8"?>
<svg version="1.1" xmlns="http://www.w3.org/2000/svg" width="128" height="128">
<path d="M0 0 C42.24 0 84.48 0 128 0 C128 42.24 128 84.48 128 128 C85.76 128 43.52 128 0 128 C0 85.76 0 43.52 0 0 Z " fill="#3D3B38" transform="translate(0,0)"/>
<path d="M0 0 C42.24 0 84.48 0 128 0 C128 42.24 128 84.48 128 128 C85.76 128 43.52 128 0 128 C0 85.76 0 43.52 0 0 Z M22 24 C11.23755524 38.26075377 8.18032609 52.38711347 10 70 C11.96635188 79.10670339 16.79679506 89.10799153 23.6328125 95.53515625 C25.69418284 97.74376733 25.67515679 100.0764111 26 103 C22.04 103 18.08 103 14 103 C15.0209375 104.8253125 15.0209375 104.8253125 16.0625 106.6875 C17.38434182 109.34993316 18.00743483 110.68030232 17.9375 113.6875 C16.87505107 116.30820736 15.46233414 118.58396969 14 121 C14 121.99 14 122.98 14 124 C21.59 124 29.18 124 37 124 C37 122.02 37 120.04 37 118 C54.82 118 72.64 118 91 118 C91 119.98 91 121.96 91 124 C98.92 124 106.84 124 115 124 C113.41681336 119.28103255 113.41681336 119.28103255 111.3125 117 C110 115 110 115 110.0625 112.625 C111.2261811 109.36669292 113.04375004 106.83971768 115 104 C115 103.34 115 102.68 115 102 C111.04 102 107.08 102 103 102 C104.12775674 96.58676765 106.07182409 93.28577774 109.48046875 88.96484375 C116.40030401 80.01708762 118.55298973 70.75142732 118.4375 59.625 C118.42992676 58.60639893 118.42235352 57.58779785 118.41455078 56.53833008 C118.25681246 49.36469044 117.52446823 43.35936658 114 37 C113.56429687 36.15824219 113.12859375 35.31648438 112.6796875 34.44921875 C104.3038678 19.36816635 92.25489196 11.21708734 76 6 C55.58830302 0.81450416 35.95785947 9.05687987 22 24 Z " fill="#FDFCFB" transform="translate(0,0)"/>
<path d="M0 0 C9.60034498 8.25774034 18.19088717 20.44346175 19.3203125 33.41699219 C19.4382517 36.33802078 19.46886218 39.24854431 19.47265625 42.171875 C19.49714844 43.15349609 19.52164063 44.13511719 19.546875 45.14648438 C19.59160164 56.41014367 14.9254547 67.63923119 7.34765625 76.046875 C4.89288003 79.11534527 4.37396659 80.99103025 4.09765625 84.859375 C8.05765625 84.859375 12.01765625 84.859375 16.09765625 84.859375 C14.09765625 88.859375 14.09765625 88.859375 12.41015625 91.296875 C10.90009612 93.74138609 10.90009612 93.74138609 11.16015625 96.296875 C12.33796479 99.51621835 14.1591207 102.04537178 16.09765625 104.859375 C16.09765625 105.519375 16.09765625 106.179375 16.09765625 106.859375 C8.17765625 106.859375 0.25765625 106.859375 -7.90234375 106.859375 C-7.90234375 104.879375 -7.90234375 102.899375 -7.90234375 100.859375 C-25.72234375 100.859375 -43.54234375 100.859375 -61.90234375 100.859375 C-61.90234375 102.839375 -61.90234375 104.819375 -61.90234375 106.859375 C-69.49234375 106.859375 -77.08234375 106.859375 -84.90234375 106.859375 C-83.90234375 102.859375 -83.90234375 102.859375 -82.27734375 100.484375 C-80.48258545 97.05801824 -80.8507623 95.53991008 -81.90234375 91.859375 C-82.84176861 89.83021731 -83.8283276 87.82062188 -84.90234375 85.859375 C-80.94234375 85.859375 -76.98234375 85.859375 -72.90234375 85.859375 C-73.80300655 81.15591374 -75.12600865 78.35161769 -78.21484375 74.671875 C-82.42610583 69.55694627 -84.60573024 64.01808389 -86.90234375 57.859375 C-87.45535156 56.75916016 -87.45535156 56.75916016 -88.01953125 55.63671875 C-89.38259408 51.34849898 -89.23059976 47.14342932 -89.21484375 42.671875 C-89.23095703 41.77662109 -89.24707031 40.88136719 -89.26367188 39.95898438 C-89.27405468 25.57879674 -83.10309214 13.48516608 -73.32421875 3.1484375 C-52.32884664 -16.6955755 -22.92785199 -16.91044803 0 0 Z M-73.90234375 9.859375 C-82.92318784 21.16058116 -86.49194387 34.3919949 -85.22021484 48.68212891 C-83.72593858 58.91711795 -79.0019986 68.38153031 -71.90234375 75.859375 C-71.50689362 76.37912399 -71.11144348 76.89887299 -70.70401001 77.43437195 C-68.02756205 79.5512715 -65.84290777 79.29098608 -62.46240234 79.35864258 C-61.48856598 79.38339409 -61.48856598 79.38339409 -60.49505615 79.40864563 C-58.34689488 79.45755747 -56.19938703 79.48287869 -54.05078125 79.50390625 C-53.31455158 79.51363653 -52.57832191 79.52336681 -51.81978226 79.53339195 C-47.9190656 79.58422631 -44.01867696 79.61698415 -40.11767578 79.63500977 C-36.10495034 79.65698094 -32.09590443 79.73930314 -28.08438683 79.83612537 C-24.98543606 79.89984341 -21.88734963 79.91832801 -18.78779984 79.924963 C-17.31015864 79.93582443 -15.83253531 79.96331612 -14.35554123 80.00837135 C-5.70951137 80.29994207 -5.70951137 80.29994207 1.96429443 76.74008179 C12.75358921 65.06096924 15.8327141 52.07645581 15.47265625 36.6328125 C14.77409221 24.03371102 7.84908344 13.16035598 -1.08984375 4.609375 C-23.78716881 -14.46562654 -54.16936208 -11.61658297 -73.90234375 9.859375 Z " fill="#F29E33" transform="translate(98.90234375,17.140625)"/>
<path d="M0 0 C9.60034498 8.25774034 18.19088717 20.44346175 19.3203125 33.41699219 C19.4382517 36.33802078 19.46886218 39.24854431 19.47265625 42.171875 C19.49714844 43.15349609 19.52164063 44.13511719 19.546875 45.14648438 C19.59160164 56.41014367 14.9254547 67.63923119 7.34765625 76.046875 C4.89288003 79.11534527 4.37396659 80.99103025 4.09765625 84.859375 C8.05765625 84.859375 12.01765625 84.859375 16.09765625 84.859375 C15.76765625 85.519375 15.43765625 86.179375 15.09765625 86.859375 C11.13765625 86.529375 7.17765625 86.199375 3.09765625 85.859375 C3.09765625 83.549375 3.09765625 81.239375 3.09765625 78.859375 C2.43765625 78.859375 1.77765625 78.859375 1.09765625 78.859375 C1.70073975 75.57511307 2.81032684 73.68233053 4.91015625 71.109375 C13.95915049 59.39125296 15.58907051 46.30286638 14.09765625 31.859375 C11.32281328 19.89286468 4.21582002 8.90410336 -5.90234375 1.859375 C-19.38413249 -6.14661719 -32.63989693 -9.13883339 -48.08203125 -5.94921875 C-61.19324129 -2.19018762 -71.56732464 6.21662371 -78.4296875 17.9296875 C-84.64985832 30.30403264 -86.46670966 44.03224795 -82.10205078 57.29492188 C-79.47794208 64.40237326 -75.94625378 70.20447587 -70.90234375 75.859375 C-70.24234375 76.849375 -69.58234375 77.839375 -68.90234375 78.859375 C-71.37734375 79.354375 -71.37734375 79.354375 -73.90234375 79.859375 C-79.59524951 74.1336571 -82.96339905 68.34764505 -85.90234375 60.859375 C-86.16418457 60.27849121 -86.42602539 59.69760742 -86.69580078 59.09912109 C-89.07094438 53.51957511 -89.35583731 48.50221491 -89.27734375 42.484375 C-89.28894531 41.60265625 -89.30054687 40.7209375 -89.3125 39.8125 C-89.24960001 25.51323468 -83.0426589 13.42128531 -73.32421875 3.1484375 C-52.32884664 -16.6955755 -22.92785199 -16.91044803 0 0 Z " fill="#F6CC32" transform="translate(98.90234375,17.140625)"/>
<path d="M0 0 C2.64 0 5.28 0 8 0 C8 0.66 8 1.32 8 2 C9.32 2 10.64 2 12 2 C15.03245489 5.70633376 15.54091176 9.31729991 16 14 C15.34 14 14.68 14 14 14 C13.80341192 15.41543415 13.61812454 16.83244031 13.4375 18.25 C13.33308594 19.03890625 13.22867188 19.8278125 13.12109375 20.640625 C12.99972651 23.00532874 13.30366743 24.7511037 14 27 C12.35 26.67 10.7 26.34 9 26 C9 26.99 9 27.98 9 29 C8.34 29 7.68 29 7 29 C6.71125 28.195625 6.4225 27.39125 6.125 26.5625 C5.26737432 23.8673532 5.26737432 23.8673532 3 23 C2.01 25.475 2.01 25.475 1 28 C-0.98 27.34 -2.96 26.68 -5 26 C-4.79375 25.05125 -4.5875 24.1025 -4.375 23.125 C-4.25125 22.09375 -4.1275 21.0625 -4 20 C-4.66 19.34 -5.32 18.68 -6 18 C-7.71377739 13.37280105 -7.67004708 8.57461065 -5.75 4.0625 C-4.88375 3.0415625 -4.88375 3.0415625 -4 2 C-2.68 2 -1.36 2 0 2 C0 1.34 0 0.68 0 0 Z " fill="#494138" transform="translate(61,46)"/>
<path d="M0 0 C2.375 0.1875 2.375 0.1875 5 1 C6.3125 3.5625 6.3125 3.5625 7 6 C8.0621875 6.04640625 9.124375 6.0928125 10.21875 6.140625 C15.0037829 7.22813248 15.91324065 8.67087949 18.5 12.75 C19.1909375 13.79671875 19.881875 14.8434375 20.59375 15.921875 C22 19 22 19 22.00390625 21.68359375 C20.70005852 24.69208286 19.22166137 25.62631776 16.4375 27.3125 C15.61121094 27.82425781 14.78492187 28.33601563 13.93359375 28.86328125 C13.29550781 29.23839844 12.65742187 29.61351563 12 30 C1.37907869 20.00383877 1.37907869 20.00383877 0.69140625 14.5546875 C0.75 12.125 0.75 12.125 0.984375 9.8828125 C0.98953125 9.26148438 0.9946875 8.64015625 1 8 C0.34 7.34 -0.32 6.68 -1 6 C-0.625 2.875 -0.625 2.875 0 0 Z " fill="#D08934" transform="translate(80,44)"/>
<path d="M0 0 C3.96 0 7.92 0 12 0 C12 4.62 12 9.24 12 14 C15.63 14 19.26 14 23 14 C23 16.31 23 18.62 23 21 C15.41 21 7.82 21 0 21 C1 17 1 17 2.625 14.625 C4.4197583 11.19864324 4.05158145 9.68053508 3 6 C2.06057514 3.97084231 1.07401615 1.96124688 0 0 Z " fill="#EC7639" transform="translate(14,103)"/>
<path d="M0 0 C3.96 0 7.92 0 12 0 C10 5 10 5 8 8 C8.34641839 11.46418389 9.03286587 13.04929881 11 16 C11 17.32 11 18.64 11 20 C4.07 20 -2.86 20 -10 20 C-10 18.02 -10 16.04 -10 14 C-6.7 14 -3.4 14 0 14 C0 9.38 0 4.76 0 0 Z " fill="#EC7631" transform="translate(102,103)"/>
<path d="M0 0 C2.64 0 5.28 0 8 0 C8 0.66 8 1.32 8 2 C9.32 2 10.64 2 12 2 C15.03245489 5.70633376 15.54091176 9.31729991 16 14 C15.34 14 14.68 14 14 14 C13.80341192 15.41543415 13.61812454 16.83244031 13.4375 18.25 C13.33308594 19.03890625 13.22867188 19.8278125 13.12109375 20.640625 C12.99972651 23.00532874 13.30366743 24.7511037 14 27 C12.35 26.67 10.7 26.34 9 26 C9 26.99 9 27.98 9 29 C8.34 29 7.68 29 7 29 C6.71125 28.195625 6.4225 27.39125 6.125 26.5625 C5.26737432 23.8673532 5.26737432 23.8673532 3 23 C2.01 25.475 2.01 25.475 1 28 C-0.98 27.34 -2.96 26.68 -5 26 C-4.79375 25.05125 -4.5875 24.1025 -4.375 23.125 C-4.25125 22.09375 -4.1275 21.0625 -4 20 C-4.66 19.34 -5.32 18.68 -6 18 C-7.71377739 13.37280105 -7.67004708 8.57461065 -5.75 4.0625 C-4.88375 3.0415625 -4.88375 3.0415625 -4 2 C-2.68 2 -1.36 2 0 2 C0 1.34 0 0.68 0 0 Z M-3 4 C-3 4.99 -3 5.98 -3 7 C-3.66 7 -4.32 7 -5 7 C-5.12469099 12.57830016 -5.12469099 12.57830016 -4 18 C-3.34 18 -2.68 18 -2 18 C-2 18.66 -2 19.32 -2 20 C1.50147041 21.1671568 4.32670036 21.13357453 8 21 C8.66 20.67 9.32 20.34 10 20 C10 19.34 10 18.68 10 18 C10.99 17.67 11.98 17.34 13 17 C14.41092983 11.74107972 13.64025411 8.73424875 11 4 C6.78431054 0.65652215 1.40496146 1.28925449 -3 4 Z " fill="#C87F37" transform="translate(61,46)"/>
<path d="M0 0 C2.72265625 -0.35546875 2.72265625 -0.35546875 6 0 C8.37109375 2.44921875 8.37109375 2.44921875 10.4375 5.6875 C11.13746094 6.74324219 11.83742188 7.79898438 12.55859375 8.88671875 C14 12 14 12 14.0078125 14.6875 C12.69922885 17.69014156 11.21898348 18.62793958 8.4375 20.3125 C7.19806641 21.08013672 7.19806641 21.08013672 5.93359375 21.86328125 C5.29550781 22.23839844 4.65742187 22.61351563 4 23 C0.71211176 19.88983545 -1.83735988 16.98381075 -4 13 C-0.30458414 12.04975021 2.30458414 12.04975021 6 13 C6 13.66 6 14.32 6 15 C5.01 15 4.02 15 3 15 C3 15.66 3 16.32 3 17 C4.65 17 6.3 17 8 17 C8 15.02 8 13.04 8 11 C6.35 11 4.7 11 3 11 C3 10.34 3 9.68 3 9 C3.66 9 4.32 9 5 9 C5 8.34 5 7.68 5 7 C3.68 6.67 2.36 6.34 1 6 C0.67 4.02 0.34 2.04 0 0 Z " fill="#EC9832" transform="translate(88,51)"/>
<path d="M0 0 C0.33 0 0.66 0 1 0 C1.00386719 1.12921875 1.00386719 1.12921875 1.0078125 2.28125 C1.5066196 15.98181821 5.86166896 27.75470618 15 38 C15.66 38.99 16.32 39.98 17 41 C14.525 41.495 14.525 41.495 12 42 C6.30460719 36.27178072 2.95054482 30.4916177 0 23 C-0.433125 21.9275 -0.86625 20.855 -1.3125 19.75 C-2.14191876 16.43232494 -2.13622708 13.40567691 -2 10 C-1.34 10 -0.68 10 0 10 C0 6.7 0 3.4 0 0 Z " fill="#F0C529" transform="translate(13,55)"/>
<path d="M0 0 C1.32 0.33 2.64 0.66 4 1 C3.67 2.98 3.34 4.96 3 7 C4.65 7 6.3 7 8 7 C8 8.65 8 10.3 8 12 C-0.25 12 -8.5 12 -17 12 C-17 10.35 -17 8.7 -17 7 C-15.02 7 -13.04 7 -11 7 C-10.67 6.34 -10.34 5.68 -10 5 C-8.35 5.33 -6.7 5.66 -5 6 C-5 5.34 -5 4.68 -5 4 C-4.34 4 -3.68 4 -3 4 C-3 4.66 -3 5.32 -3 6 C-1.68 5.67 -0.36 5.34 1 5 C1.33 3.68 1.66 2.36 2 1 C1.34 0.67 0.68 0.34 0 0 Z " fill="#EC9932" transform="translate(42,46)"/>
<path d="M0 0 C6.93 0 13.86 0 21 0 C21 0.99 21 1.98 21 3 C20.01 3 19.02 3 18 3 C18 5.97 18 8.94 18 12 C16.68 12 15.36 12 14 12 C14 9.03 14 6.06 14 3 C10.7 3 7.4 3 4 3 C4 3.66 4 4.32 4 5 C5.65 5 7.3 5 9 5 C9 5.99 9 6.98 9 8 C7.35 8 5.7 8 4 8 C4 9.32 4 10.64 4 12 C2.68 12 1.36 12 0 12 C0 8.04 0 4.08 0 0 Z " fill="#5F4E37" transform="translate(64,101)"/>
<path d="M0 0 C0.66 0 1.32 0 2 0 C0.80864338 9.53085297 -3.28521373 19.03139265 -9.75 26.1875 C-12.20477622 29.25597027 -12.72368966 31.13165525 -13 35 C-9.04 35 -5.08 35 -1 35 C-1.33 35.66 -1.66 36.32 -2 37 C-5.96 36.67 -9.92 36.34 -14 36 C-14 33.69 -14 31.38 -14 29 C-14.66 29 -15.32 29 -16 29 C-15.3969165 25.71573807 -14.28732941 23.82295553 -12.1875 21.25 C-9.17786375 17.37123251 -7.06011687 13.43651724 -5 9 C-1.17687075 1.17687075 -1.17687075 1.17687075 0 0 Z " fill="#F2C942" transform="translate(116,67)"/>
<path d="M0 0 C3.3 0 6.6 0 10 0 C10 4.62 10 9.24 10 14 C6.7 14 3.4 14 0 14 C0 9.38 0 4.76 0 0 Z " fill="#DC6E3C" transform="translate(27,60)"/>
<path d="M0 0 C3.3 0 6.6 0 10 0 C10 4.62 10 9.24 10 14 C6.7 14 3.4 14 0 14 C0 9.38 0 4.76 0 0 Z " fill="#F28937" transform="translate(38,60)"/>
<path d="M0 0 C0.33 0.66 0.66 1.32 1 2 C1.7425 1.938125 2.485 1.87625 3.25 1.8125 C6.51239149 2.03493578 7.74339127 2.65981317 10 5 C10 6.32 10 7.64 10 9 C3.07 9 -3.86 9 -11 9 C-11 7.35 -11 5.7 -11 4 C-7.37 4 -3.74 4 0 4 C0 2.68 0 1.36 0 0 Z " fill="#EC6D31" transform="translate(103,114)"/>
<path d="M0 0 C0.33 0.66 0.66 1.32 1 2 C1.99 2.33 2.98 2.66 4 3 C4 4.65 4 6.3 4 8 C4.928125 7.79375 5.85625 7.5875 6.8125 7.375 C10 7 10 7 13 9 C12.938125 8.236875 12.87625 7.47375 12.8125 6.6875 C13 4 13 4 14.5 2.1875 C14.995 1.795625 15.49 1.40375 16 1 C16.66 1.33 17.32 1.66 18 2 C17.67 3.98 17.34 5.96 17 8 C16.01 8.33 15.02 8.66 14 9 C14 9.66 14 10.32 14 11 C11.01002175 12.49498913 8.29957225 12.11577446 5 12 C4.01 11.67 3.02 11.34 2 11 C2 10.34 2 9.68 2 9 C1.34 9 0.68 9 0 9 C-1.125 2.25 -1.125 2.25 0 0 Z " fill="#433E38" transform="translate(57,55)"/>
<path d="M0 0 C0.66 0.33 1.32 0.66 2 1 C2 1.66 2 2.32 2 3 C-0.31 3.33 -2.62 3.66 -5 4 C-5 5.32 -5 6.64 -5 8 C-3.68 8.33 -2.36 8.66 -1 9 C-1 8.01 -1 7.02 -1 6 C-0.01 6 0.98 6 2 6 C2.042721 7.66611905 2.04063832 9.33382885 2 11 C1 12 1 12 -2.375 12.25 C-6 12 -6 12 -7.9375 10.875 C-9.50422245 8.11019567 -9.38976435 6.11811483 -9 3 C-6.77648059 -0.70586568 -4.03105606 -0.3430686 0 0 Z " fill="#4D4338" transform="translate(54,101)"/>
<path d="M0 0 C0.99 0.33 1.98 0.66 3 1 C3 1.66 3 2.32 3 3 C4.32 3 5.64 3 7 3 C6.34 5.64 5.68 8.28 5 11 C2.36 11 -0.28 11 -3 11 C-3.66 8.36 -4.32 5.72 -5 3 C-3.68 2.67 -2.36 2.34 -1 2 C-0.67 1.34 -0.34 0.68 0 0 Z " fill="#DF8C35" transform="translate(64,52)"/>
<path d="M0 0 C3.01305957 0.38878188 4.39685311 1.26456874 7 3 C7.4125 2.484375 7.825 1.96875 8.25 1.4375 C9.11625 0.7259375 9.11625 0.7259375 10 0 C12.1875 0.3125 12.1875 0.3125 14 1 C13.34 2.98 12.68 4.96 12 7 C10.68 7 9.36 7 8 7 C8 6.34 8 5.68 8 5 C7.34 5 6.68 5 6 5 C6 5.66 6 6.32 6 7 C4.824375 6.9690625 4.824375 6.9690625 3.625 6.9375 C1.01885039 6.81315937 1.01885039 6.81315937 -1 8 C-1.625 5.125 -1.625 5.125 -2 2 C-1.34 1.34 -0.68 0.68 0 0 Z " fill="#BF8635" transform="translate(31,45)"/>
<path d="M0 0 C0 0.66 0 1.32 0 2 C-0.99 2 -1.98 2 -3 2 C-3 2.66 -3 3.32 -3 4 C-1.35 4 0.3 4 2 4 C2 2.35 2 0.7 2 -1 C2.33 -1 2.66 -1 3 -1 C3.33 1.31 3.66 3.62 4 6 C1.69 7.32 -0.62 8.64 -3 10 C-5.31 7.03 -7.62 4.06 -10 1 C-6.1496895 -1.56687367 -4.41430237 -0.83288724 0 0 Z " fill="#E17D3A" transform="translate(94,64)"/>
<path d="M0 0 C0.66 0 1.32 0 2 0 C2.08076963 2.45898655 2.14037143 4.91533742 2.1875 7.375 C2.22520508 8.42300781 2.22520508 8.42300781 2.26367188 9.4921875 C2.29296875 11.5234375 2.29296875 11.5234375 2 15 C1.01 15.66 0.02 16.32 -1 17 C-2.19232613 19.05003955 -2.19232613 19.05003955 -3 21 C-3.33 20.34 -3.66 19.68 -4 19 C-3.505 17.515 -3.505 17.515 -3 16 C-2.73038495 12.67902727 -2.55500564 9.35840436 -2.37890625 6.03125 C-2 3 -2 3 0 0 Z " fill="#EFC529" transform="translate(116,52)"/>
<path d="M0 0 C2.64 0 5.28 0 8 0 C8 2.97 8 5.94 8 9 C7.05125 8.67 6.1025 8.34 5.125 8 C2.22937548 6.89840809 2.22937548 6.89840809 0 7 C0 4.69 0 2.38 0 0 Z " fill="#F38638" transform="translate(28,60)"/>
<path d="M0 0 C2.4375 0.75 2.4375 0.75 5 2 C6 3.9375 6 3.9375 6 6 C4.5625 7.75 4.5625 7.75 3 9 C0.525 8.01 0.525 8.01 -2 7 C-1.42415568 4.61435923 -0.77772405 2.33317216 0 0 Z " fill="#E06F3C" transform="translate(58,65)"/>
<path d="M0 0 C1.32 0 2.64 0 4 0 C4 0.66 4 1.32 4 2 C3.34 2 2.68 2 2 2 C2 2.66 2 3.32 2 4 C3.65 4 5.3 4 7 4 C7 5.98 7 7.96 7 10 C5.35 10 3.7 10 2 10 C2 9.34 2 8.68 2 8 C2.99 8 3.98 8 5 8 C5 7.34 5 6.68 5 6 C3.35 6 1.7 6 0 6 C-1 3 -1 3 0 0 Z " fill="#5B4A38" transform="translate(89,58)"/>
<path d="M0 0 C2.375 0.25 2.375 0.25 5 1 C6.3125 3.0625 6.3125 3.0625 7 5 C6.01 5 5.02 5 4 5 C4 5.66 4 6.32 4 7 C3.01 7.33 2.02 7.66 1 8 C0.34 7.34 -0.32 6.68 -1 6 C-0.625 2.875 -0.625 2.875 0 0 Z " fill="#8D6937" transform="translate(80,44)"/>
<path d="M0 0 C0.99 0 1.98 0 3 0 C3 3.96 3 7.92 3 12 C2.01 12 1.02 12 0 12 C0 8.04 0 4.08 0 0 Z " fill="#4B4338" transform="translate(59,101)"/>
<path d="M0 0 C0.33 0 0.66 0 1 0 C1 3.3 1 6.6 1 10 C3.97 10.99 6.94 11.98 10 13 C10 13.33 10 13.66 10 14 C6.7 14 3.4 14 0 14 C0 9.38 0 4.76 0 0 Z " fill="#C46A3B" transform="translate(38,60)"/>
<path d="M0 0 C0.33 0 0.66 0 1 0 C1.33 2.31 1.66 4.62 2 7 C-0.31 8.32 -2.62 9.64 -5 11 C-5.66 10.01 -6.32 9.02 -7 8 C-5.75 6.5 -5.75 6.5 -4 5 C-2.68 5 -1.36 5 0 5 C0 3.35 0 1.7 0 0 Z " fill="#D8723C" transform="translate(96,63)"/>
<path d="M0 0 C0.66 0 1.32 0 2 0 C1.51421457 3.12290635 1.0013988 5.99580359 0 9 C-1.32 9 -2.64 9 -4 9 C-3.35494404 5.51669784 -2.01782732 2.90567134 0 0 Z " fill="#FAD136" transform="translate(116,67)"/>
<path d="M0 0 C2.97 0 5.94 0 9 0 C9 1.65 9 3.3 9 5 C7.68445015 4.5504955 6.37261642 4.09010284 5.0625 3.625 C4.33160156 3.36976562 3.60070312 3.11453125 2.84765625 2.8515625 C1 2 1 2 0 0 Z " fill="#C84B14" transform="translate(27,118)"/>
<path d="M0 0 C2.97 0 5.94 0 9 0 C7.694761 2.61047801 6.64173426 2.68066423 3.9375 3.625 C2.83728516 4.01558594 2.83728516 4.01558594 1.71484375 4.4140625 C1.14894531 4.60742188 0.58304687 4.80078125 0 5 C0 3.35 0 1.7 0 0 Z " fill="#C84B14" transform="translate(92,118)"/>
<path d="M0 0 C0.66 0 1.32 0 2 0 C2 0.66 2 1.32 2 2 C2.66 2.33 3.32 2.66 4 3 C3.34 3 2.68 3 2 3 C2 4.65 2 6.3 2 8 C1.01 8 0.02 8 -1 8 C-1 6.35 -1 4.7 -1 3 C-1.66 2.67 -2.32 2.34 -3 2 C-2.01 2 -1.02 2 0 2 C0 1.34 0 0.68 0 0 Z " fill="#C78735" transform="translate(37,50)"/>
<path d="M0 0 C1.32 0.33 2.64 0.66 4 1 C4.33 2.32 4.66 3.64 5 5 C3.35 4.67 1.7 4.34 0 4 C0 2.68 0 1.36 0 0 Z " fill="#594A37" transform="translate(31,47)"/>
<path d="M0 0 C0.99 0 1.98 0 3 0 C3 1.65 3 3.3 3 5 C2.01 5.33 1.02 5.66 0 6 C0 5.34 0 4.68 0 4 C-0.99 3.67 -1.98 3.34 -3 3 C-2.01 3 -1.02 3 0 3 C0 2.01 0 1.02 0 0 Z " fill="#5B4C38" transform="translate(53,107)"/>
<path d="M0 0 C0.99 0 1.98 0 3 0 C2.67 1.65 2.34 3.3 2 5 C0.68 5 -0.64 5 -2 5 C-1.34 3.35 -0.68 1.7 0 0 Z " fill="#594A37" transform="translate(41,47)"/>
<path d="M0 0 C-1.32 1.65 -2.64 3.3 -4 5 C-5.32 3.35 -6.64 1.7 -8 0 C-2.25 -1.125 -2.25 -1.125 0 0 Z " fill="#BF663B" transform="translate(71,67)"/>
<path d="M0 0 C0.625 1.875 0.625 1.875 1 4 C0.34 4.66 -0.32 5.32 -1 6 C-1.99 6 -2.98 6 -4 6 C-4 5.01 -4 4.02 -4 3 C-2.68 2.67 -1.36 2.34 0 2 C0 1.34 0 0.68 0 0 Z " fill="#EA8237" transform="translate(101,63)"/>
</svg>
